<svg width="14" height="7" viewBox="0 0 14 7" fill="none" xmlns="http://www.w3.org/2000/svg">
<g id="material-symbols:arrow-forward-ios-rounded" clip-path="url(#clip0_51_2640)">
<path id="Vector" d="M0.629902 0.670899C0.804902 0.525065 1.0121 0.452149 1.2515 0.452149C1.4909 0.452149 1.69787 0.525065 1.8724 0.670899L6.9999 4.94382L12.1449 0.656315C12.3082 0.520204 12.5124 0.452148 12.7574 0.452148C13.0024 0.452148 13.2124 0.525065 13.3874 0.670898C13.5624 0.816732 13.6499 0.989398 13.6499 1.1889C13.6499 1.3884 13.5624 1.56087 13.3874 1.70632L7.4899 6.60632C7.4199 6.66465 7.34407 6.70607 7.2624 6.73057C7.18074 6.75507 7.09324 6.76712 6.9999 6.76673C6.90657 6.76673 6.81907 6.75448 6.7374 6.72998C6.65574 6.70548 6.5799 6.66426 6.5099 6.60632L0.612403 1.69173C0.449069 1.55562 0.367402 1.38781 0.367402 1.18832C0.367402 0.988815 0.454903 0.816343 0.629902 0.670899Z" fill="#222222"/>
</g>
<defs>
<clipPath id="clip0_51_2640">
<rect width="7" height="14" fill="white" transform="translate(14) rotate(90)"/>
</clipPath>
</defs>
</svg>
