<svg width="20" height="20" viewBox="0 0 20 20" fill="none" xmlns="http://www.w3.org/2000/svg">
<path d="M17.5 16.6667V5.00002C17.5 4.08085 16.7525 3.33335 15.8333 3.33335H14.1667V1.66669H12.5V3.33335H7.5V1.66669H5.83333V3.33335H4.16667C3.2475 3.33335 2.5 4.08085 2.5 5.00002V16.6667C2.5 17.5859 3.2475 18.3334 4.16667 18.3334H15.8333C16.7525 18.3334 17.5 17.5859 17.5 16.6667ZM7.5 15H5.83333V13.3334H7.5V15ZM7.5 11.6667H5.83333V10H7.5V11.6667ZM10.8333 15H9.16667V13.3334H10.8333V15ZM10.8333 11.6667H9.16667V10H10.8333V11.6667ZM14.1667 15H12.5V13.3334H14.1667V15ZM14.1667 11.6667H12.5V10H14.1667V11.6667ZM15.8333 7.50002H4.16667V5.83335H15.8333V7.50002Z" fill="#CCCCCC"/>
</svg>
