<svg width="14" height="7" viewBox="0 0 14 7" fill="none" xmlns="http://www.w3.org/2000/svg">
<g id="material-symbols:arrow-forward-ios-rounded" clip-path="url(#clip0_51_2352)">
<path id="Vector" d="M13.3701 6.32916C13.1951 6.475 12.9879 6.54791 12.7485 6.54791C12.5091 6.54791 12.3021 6.475 12.1276 6.32916L7.0001 2.05625L1.8551 6.34375C1.69176 6.47986 1.4876 6.54791 1.2426 6.54791C0.997598 6.54791 0.787598 6.475 0.612598 6.32916C0.437598 6.18333 0.350098 6.01066 0.350098 5.81116C0.350098 5.61166 0.437598 5.43919 0.612598 5.29375L6.5101 0.393745C6.5801 0.335412 6.65593 0.293996 6.7376 0.269496C6.81926 0.244996 6.90676 0.23294 7.0001 0.233329C7.09343 0.233329 7.18093 0.245578 7.2626 0.270078C7.34426 0.294579 7.4201 0.335801 7.4901 0.393745L13.3876 5.30833C13.5509 5.44444 13.6326 5.61225 13.6326 5.81175C13.6326 6.01125 13.5451 6.18372 13.3701 6.32916Z" fill="white"/>
</g>
<defs>
<clipPath id="clip0_51_2352">
<rect width="7" height="14" fill="white" transform="translate(0 7) rotate(-90)"/>
</clipPath>
</defs>
</svg>
