<svg width="107" height="26" viewBox="0 0 107 26" fill="none" xmlns="http://www.w3.org/2000/svg">
<rect x="0.5" y="0.5" width="106" height="25" rx="4.5" fill="#F5F5F5" stroke="#E0E0E0"/>
<path d="M17.7805 16.08C17.0805 16.78 16.2238 17.13 15.2105 17.13C14.1971 17.13 13.3371 16.78 12.6305 16.08C11.9305 15.3733 11.5805 14.5133 11.5805 13.5C11.5805 12.4867 11.9305 11.63 12.6305 10.93C13.3371 10.2233 14.1971 9.87 15.2105 9.87C16.2238 9.87 17.0805 10.2233 17.7805 10.93C18.4871 11.63 18.8405 12.4867 18.8405 13.5C18.8405 14.5133 18.4871 15.3733 17.7805 16.08ZM13.4405 15.3C13.9271 15.7733 14.5171 16.01 15.2105 16.01C15.9105 16.01 16.4971 15.7733 16.9705 15.3C17.4505 14.82 17.6905 14.22 17.6905 13.5C17.6905 12.78 17.4505 12.1833 16.9705 11.71C16.4971 11.23 15.9105 10.99 15.2105 10.99C14.5105 10.99 13.9205 11.23 13.4405 11.71C12.9671 12.1833 12.7305 12.78 12.7305 13.5C12.7305 14.2133 12.9671 14.8133 13.4405 15.3ZM21.0395 12.7H22.5395C23.1861 12.7 23.7228 12.9033 24.1495 13.31C24.5761 13.7167 24.7895 14.23 24.7895 14.85C24.7895 15.47 24.5761 15.9833 24.1495 16.39C23.7228 16.7967 23.1861 17 22.5395 17H19.8895V10H24.1895V11.1H21.0395V12.7ZM21.0395 15.92H22.5395C22.8595 15.92 23.1228 15.8233 23.3295 15.63C23.5361 15.43 23.6395 15.17 23.6395 14.85C23.6395 14.53 23.5361 14.2733 23.3295 14.08C23.1228 13.88 22.8595 13.78 22.5395 13.78H21.0395V15.92ZM25.7391 10H28.3191C28.9791 10 29.5291 10.22 29.9691 10.66C30.4157 11.1 30.6391 11.6467 30.6391 12.3C30.6391 12.9467 30.4157 13.4933 29.9691 13.94C29.5291 14.38 28.9791 14.6 28.3191 14.6H26.8891V17H25.7391V10ZM26.8891 13.52H28.3191C28.6591 13.52 28.9391 13.4067 29.1591 13.18C29.3791 12.9467 29.4891 12.6533 29.4891 12.3C29.4891 11.9467 29.3791 11.6567 29.1591 11.43C28.9391 11.1967 28.6591 11.08 28.3191 11.08H26.8891V13.52ZM32.7875 14.01V15.9H35.8875V17H31.6375V10H35.8375V11.1H32.7875V12.92H35.5875V14.01H32.7875ZM40.5002 13.37C41.2136 13.71 41.5702 14.2733 41.5702 15.06C41.5702 15.6733 41.3369 16.1733 40.8702 16.56C40.4102 16.94 39.8069 17.13 39.0602 17.13C37.7802 17.13 36.9336 16.59 36.5202 15.51L37.5102 14.94C37.7169 15.68 38.2336 16.05 39.0602 16.05C39.4936 16.05 39.8269 15.9567 40.0602 15.77C40.3002 15.5833 40.4202 15.3267 40.4202 15C40.4202 14.68 40.3069 14.4267 40.0802 14.24C39.8536 14.0533 39.5402 13.96 39.1402 13.96H38.2902V12.92H38.9102C39.3036 12.92 39.6102 12.83 39.8302 12.65C40.0502 12.47 40.1602 12.23 40.1602 11.93C40.1602 11.6233 40.0602 11.3833 39.8602 11.21C39.6602 11.0367 39.3736 10.95 39.0002 10.95C38.3069 10.95 37.8402 11.2667 37.6002 11.9L36.6202 11.33C37.0736 10.3567 37.8669 9.87 39.0002 9.87C39.6802 9.87 40.2369 10.0567 40.6702 10.43C41.0969 10.7967 41.3102 11.2767 41.3102 11.87C41.3102 12.53 41.0402 13.03 40.5002 13.37ZM46.725 12.87V10H47.875V17H46.725V13.97H43.725V17H42.575V10H43.725V12.87H46.725ZM55.0742 17H53.8342L53.3442 15.59H50.3642L49.8742 17H48.6242L51.1642 10H52.5442L55.0742 17ZM51.8542 11.35L50.7442 14.51H52.9642L51.8542 11.35ZM57.9058 10H60.7058V17H59.5558V14.45H58.4458L56.7558 17H55.4558L57.2358 14.35C56.7691 14.21 56.3891 13.9467 56.0958 13.56C55.8024 13.1667 55.6558 12.73 55.6558 12.25C55.6558 11.6233 55.8724 11.0933 56.3058 10.66C56.7458 10.22 57.2791 10 57.9058 10ZM57.9058 13.42H59.5558V11.08H57.9058C57.5991 11.08 57.3391 11.1933 57.1258 11.42C56.9124 11.6467 56.8058 11.9233 56.8058 12.25C56.8058 12.5767 56.9124 12.8533 57.1258 13.08C57.3391 13.3067 57.5991 13.42 57.9058 13.42ZM69.8563 10V15.9H70.6063V18.34H69.4563V17H65.2063V18.34H64.0563V15.9H64.7063C65.1129 15.3733 65.3163 14.57 65.3163 13.49V10H69.8563ZM65.9663 15.9H68.7063V11.08H66.4663V13.51C66.4663 14.55 66.2996 15.3467 65.9663 15.9ZM77.3605 16.08C76.6605 16.78 75.8039 17.13 74.7905 17.13C73.7772 17.13 72.9172 16.78 72.2105 16.08C71.5105 15.3733 71.1605 14.5133 71.1605 13.5C71.1605 12.4867 71.5105 11.63 72.2105 10.93C72.9172 10.2233 73.7772 9.87 74.7905 9.87C75.8039 9.87 76.6605 10.2233 77.3605 10.93C78.0672 11.63 78.4205 12.4867 78.4205 13.5C78.4205 14.5133 78.0672 15.3733 77.3605 16.08ZM73.0205 15.3C73.5072 15.7733 74.0972 16.01 74.7905 16.01C75.4905 16.01 76.0772 15.7733 76.5505 15.3C77.0305 14.82 77.2705 14.22 77.2705 13.5C77.2705 12.78 77.0305 12.1833 76.5505 11.71C76.0772 11.23 75.4905 10.99 74.7905 10.99C74.0905 10.99 73.5005 11.23 73.0205 11.71C72.5472 12.1833 72.3105 12.78 72.3105 13.5C72.3105 14.2133 72.5472 14.8133 73.0205 15.3ZM82.7795 17.13C81.7262 17.13 80.8529 16.7833 80.1595 16.09C79.4662 15.3833 79.1195 14.52 79.1195 13.5C79.1195 12.4733 79.4662 11.6133 80.1595 10.92C80.8462 10.22 81.7195 9.87 82.7795 9.87C83.4129 9.87 83.9962 10.02 84.5295 10.32C85.0695 10.62 85.4895 11.0267 85.7895 11.54L84.7895 12.12C84.6029 11.7733 84.3295 11.5 83.9695 11.3C83.6162 11.0933 83.2195 10.99 82.7795 10.99C82.0395 10.99 81.4329 11.2267 80.9595 11.7C80.4995 12.1667 80.2695 12.7667 80.2695 13.5C80.2695 14.2333 80.4995 14.8333 80.9595 15.3C81.4329 15.7733 82.0395 16.01 82.7795 16.01C83.2195 16.01 83.6195 15.91 83.9795 15.71C84.3395 15.5033 84.6095 15.2267 84.7895 14.88L85.7895 15.45C85.5029 15.9567 85.0862 16.3667 84.5395 16.68C84.0129 16.98 83.4262 17.13 82.7795 17.13ZM89.0949 13.41L92.0249 17H90.6549L87.8949 13.67V17H86.7449V10H87.8949V13.14L90.5549 10H91.9249L89.0949 13.41ZM98.7168 17H97.4768L96.9868 15.59H94.0068L93.5168 17H92.2668L94.8068 10H96.1868L98.7168 17ZM95.4968 11.35L94.3868 14.51H96.6068L95.4968 11.35Z" fill="#222222"/>
</svg>
