<svg width="32" height="32" viewBox="0 0 32 32" fill="none" xmlns="http://www.w3.org/2000/svg">
<rect x="1" y="1" width="30" height="30" rx="3" fill="#F5F5F5" stroke="#FF9B04"/>
<path d="M15.745 13H17.047V20H15.857V14.918L13.631 18.502H13.477L11.251 14.918V20H10.047V13H11.349L13.547 16.542L15.745 13ZM20.2924 8.058C20.9551 8.058 21.4544 8.20267 21.7904 8.492C22.1264 8.78133 22.2944 9.15 22.2944 9.598C22.2944 9.97133 22.1918 10.2793 21.9864 10.522C21.7904 10.7647 21.5524 10.9327 21.2724 11.026V11.068C21.6364 11.1333 21.9258 11.2873 22.1404 11.53C22.3644 11.7633 22.4764 12.0713 22.4764 12.454C22.4764 12.9953 22.2804 13.4387 21.8884 13.784C21.4964 14.12 20.8851 14.288 20.0544 14.288C19.7091 14.288 19.3871 14.26 19.0884 14.204C18.7898 14.1387 18.5004 14.036 18.2204 13.896V13.014C18.5378 13.1633 18.8551 13.28 19.1724 13.364C19.4898 13.448 19.7884 13.49 20.0684 13.49C20.5538 13.49 20.9084 13.3967 21.1324 13.21C21.3564 13.014 21.4684 12.7527 21.4684 12.426C21.4684 12.09 21.3331 11.8473 21.0624 11.698C20.7918 11.5393 20.4138 11.46 19.9284 11.46H19.1304V10.69H19.9284C20.3951 10.69 20.7358 10.6013 20.9504 10.424C21.1744 10.2373 21.2864 9.99933 21.2864 9.71C21.2864 9.41133 21.1884 9.19667 20.9924 9.066C20.8058 8.926 20.5771 8.856 20.3064 8.856C20.0171 8.856 19.7464 8.90733 19.4944 9.01C19.2518 9.10333 19.0044 9.22933 18.7524 9.388L18.2484 8.744C18.5378 8.52933 18.8411 8.36133 19.1584 8.24C19.4851 8.11867 19.8631 8.058 20.2924 8.058Z" fill="#222222"/>
</svg>
